Coordinates
version=1
nRows=29
nColumns=24
inDegrees=yes

Units are S.I. units (second, meters, Newtons, ...)
Angles are in degrees.

endheader
time	pelvis_tilt	pelvis_list	pelvis_rotation	pelvis_tx	pelvis_ty	pelvis_tz	hip_flexion_r	hip_adduction_r	hip_rotation_r	knee_angle_r	ankle_angle_r	subtalar_angle_r	mtp_angle_r	hip_flexion_l	hip_adduction_l	hip_rotation_l	knee_angle_l	ankle_angle_l	subtalar_angle_l	mtp_angle_l	lumbar_extension	lumbar_bending	lumbar_rotation
      4.30000000	     -4.90109123	     -7.28163638	     -0.08895479	      0.09239186	     -0.01575193	     -0.14295418	     12.23859419	     15.02022846	     10.08670061	    -18.44767069	      0.40110017	     -3.66710866	      9.29241552	     32.02286288	     -7.73098276	     -7.57084745	    -67.57621369	     -6.03580206	    -11.52063425	    -19.46283903	      5.76000899	      7.35848357	      0.69827924
      4.30500000	     -4.78199683	     -7.15488563	     -0.22520157	      0.09817533	     -0.01508245	     -0.14254506	     11.36052124	     14.92543200	     10.50278331	    -17.99164751	      0.48714938	     -3.78204295	      9.19394152	     32.54808503	     -7.52832419	     -7.70463489	    -66.64788152	     -5.61026930	    -11.15397306	    -18.05362235	      5.58131233	      7.21448379	      0.89075072
      4.31000000	     -4.83888297	     -7.00361047	     -0.41560623	      0.10388361	     -0.01470561	     -0.14214108	     10.75101974	     14.78939125	     10.75968363	    -17.64881702	      0.75234847	     -3.65666749	      9.30309597	     33.26195874	     -7.31533410	     -7.89276690	    -65.71580730	     -4.94563332	    -10.64817367	    -17.55552909	      5.57895673	      7.06559355	      1.18017084
      4.31500000	     -4.82487460	     -6.86338712	     -0.58063311	      0.10962146	     -0.01430178	     -0.14175469	     10.04622286	     14.65953285	     11.04993607	    -17.27461816	      0.96357524	     -3.60536714	      9.36714824	     33.85764851	     -7.11110298	     -8.06686972	    -64.68781257	     -4.30103673	    -10.10712121	    -16.95363696	      5.50416196	      6.91789505	      1.41428430
      4.32000000	     -4.82127979	     -6.72022133	     -0.74024756	      0.11535560	     -0.01396405	     -0.14138344	      9.36123579	     14.52210369	     11.32972590	    -16.90933261	      1.16687830	     -3.58065358	      9.43172558	     34.43221624	     -6.90635581	     -8.24591591	    -63.57734373	     -3.69381072	     -9.55377455	    -16.33876472	      5.44234261	      6.76776741	      1.63228292
      4.32500000	     -4.80883220	     -6.58617209	     -0.88531816	      0.12106637	     -0.01366934	     -0.14110140	      8.67631728	     14.38395849	     11.63352842	    -16.55790556	      1.34307633	     -3.58279673	      9.49580911	     34.96298434	     -6.68789478	     -8.38389249	    -62.37694830	     -3.14614145	     -9.00382282	    -15.61659630	      5.36578309	      6.64264300	      1.85377212
      4.33000000	     -4.84089654	     -6.44694151	     -1.03269988	      0.12680550	     -0.01349394	     -0.14076639	      8.05386590	     14.24313150	     11.85446565	    -16.22072165	      1.55103013	     -3.59070996	      9.56418115	     35.51587515	     -6.49772039	     -8.57948259	    -61.12348348	     -2.58494571	     -8.40408218	    -15.06671190	      5.34726301	      6.49166309	      2.03400326
      4.33500000	     -4.87876629	     -6.31267877	     -1.15397133	      0.13250346	     -0.01339415	     -0.14053149	      7.45374769	     14.09821262	     12.07406335	    -15.90363156	      1.74979816	     -3.61832122	      9.61702722	     36.05068087	     -6.29193741	     -8.75755058	    -59.80457542	     -2.01982005	     -7.79580702	    -14.61019743	      5.31893297	      6.35758734	      2.19813039
      4.34000000	     -4.91398519	     -6.18282777	     -1.28014980	      0.13821096	     -0.01333129	     -0.14032285	      6.85753924	     13.95717209	     12.29670908	    -15.59944278	      1.93718982	     -3.66900101	      9.65379004	     36.53970396	     -6.09349361	     -8.92771626	    -58.41028368	     -1.47046593	     -7.12984031	    -14.19960898	      5.29321489	      6.23533733	      2.36220958
      4.34500000	     -4.94843275	     -6.06048459	     -1.39769824	      0.14392942	     -0.01331700	     -0.14013986	      6.26435714	     13.82327422	     12.51167794	    -15.30064421	      2.11417944	     -3.75214932	      9.66863224	     36.99136629	     -5.90419294	     -9.09475183	    -56.94921904	     -0.95305490	     -6.43189659	    -13.83534421	      5.27207762	      6.12352452	      2.52806081
      4.35000000	     -4.99679808	     -5.93971844	     -1.49747679	      0.14960345	     -0.01338373	     -0.14002308	      5.70349949	     13.68656243	     12.70896666	    -15.02180675	      2.28955265	     -3.85271633	      9.66869789	     37.42937547	     -5.71398727	     -9.27650104	    -55.42686899	     -0.43579678	     -5.71375822	    -13.53517755	      5.25217930	      6.01496589	      2.66641152
      4.35500000	     -5.04926474	     -5.82328835	     -1.59570384	      0.15527063	     -0.01350205	     -0.13992156	      5.15754273	     13.55557420	     12.89170655	    -14.75903638	      2.46372837	     -3.97069706	      9.65355105	     37.83150523	     -5.53222989	     -9.45930809	    -53.83942217	      0.06153860	     -4.96065152	    -13.29293603	      5.23622516	      5.91092616	      2.79561928
      4.36000000	     -5.10599122	     -5.71231842	     -1.68423622	      0.16091798	     -0.01367583	     -0.13986157	      4.62787390	     13.42826421	     13.05844767	    -14.51144635	      2.63486897	     -4.09787543	      9.62560021	     38.20184760	     -5.35808862	     -9.65362676	    -52.19131445	      0.54077012	     -4.17693876	    -13.10165013	      5.21955417	      5.81557941	      2.91635978
      4.36500000	     -5.16254389	     -5.60666987	     -1.77001575	      0.16654132	     -0.01389775	     -0.13982914	      4.10949317	     13.30555263	     13.21119474	    -14.27912607	      2.80546632	     -4.22853895	      9.58848136	     38.53301658	     -5.19594159	     -9.86305021	    -50.48487095	      1.00340034	     -3.35503666	    -12.95086175	      5.19492148	      5.72784149	      3.03119150
      4.37000000	     -5.21781101	     -5.51056596	     -1.85241591	      0.17215818	     -0.01416262	     -0.13981740	      3.59890887	     13.19171990	     13.34596422	    -14.06089927	      2.97527515	     -4.35205803	      9.54635083	     38.82250149	     -5.05022836	    -10.08810125	    -48.72309779	      1.44310739	     -2.50084428	    -12.83553625	      5.16670564	      5.64740093	      3.13957073
      4.37500000	     -5.26728365	     -5.42028617	     -1.93232119	      0.17775384	     -0.01447027	     -0.13982637	      3.09308527	     13.08261052	     13.45819999	    -13.85763251	      3.15346843	     -4.46731034	      9.50372744	     39.06857883	     -4.91732812	    -10.32950828	    -46.91317299	      1.85425625	     -1.61245794	    -12.74919069	      5.12847940	      5.57797911	      3.24685020
      4.38000000	     -5.32103746	     -5.34559926	     -2.00456370	      0.18334900	     -0.01482440	     -0.13987869	      2.59991631	     12.98499671	     13.54796926	    -13.66698810	      3.32952494	     -4.54242329	      9.47338728	     39.28445038	     -4.80370422	    -10.59404608	    -45.06335360	      2.23327015	     -0.69354619	    -12.67840267	      5.08981200	      5.52380227	      3.33268162
      4.38500000	     -5.36242572	     -5.28163516	     -2.08037386	      0.18894492	     -0.01521156	     -0.13992283	      2.10071808	     12.89752562	     13.61468318	    -13.48846247	      3.51852916	     -4.58681093	      9.45858562	     39.45191698	     -4.71442795	    -10.88241891	    -43.18308538	      2.57908745	      0.26772156	    -12.61348024	      5.03976914	      5.47714364	      3.41411444
      4.39000000	     -5.38279736	     -5.22803002	     -2.15932012	      0.19455024	     -0.01561698	     -0.14000065	      1.58423057	     12.81449192	     13.65625563	    -13.32109211	      3.71278651	     -4.59447767	      9.45448828	     39.55881457	     -4.63927909	    -11.18828790	    -41.27302793	      2.90344032	      1.25161558	    -12.54961499	      4.95902812	      5.44605472	      3.51718402
      4.39500000	     -5.41755623	     -5.19589213	     -2.22633377	      0.20016206	     -0.01608501	     -0.14010633	      1.08953543	     12.74900020	     13.67307936	    -13.16357513	      3.90740265	     -4.54534309	      9.48619674	     39.66652062	     -4.59050667	    -11.52430863	    -39.36791449	      3.17466353	      2.28021862	    -12.47544086	      4.89462011	      5.43324868	      3.55976168
      4.40000000	     -5.41233532	     -5.17384712	     -2.30805570	      0.20580165	     -0.01655039	     -0.14020472	      0.55393144	     12.68859354	     13.66740113	    -13.01643104	      4.11766576	     -4.44198494	      9.54793733	     39.69617496	     -4.56307674	    -11.88214782	    -37.45734080	      3.44217943	      3.34438474	    -12.37917033	      4.79111890	      5.43270498	      3.64691914
      4.40500000	     -5.39784946	     -5.16597493	     -2.38994849	      0.21145435	     -0.01704641	     -0.14034107	      0.01197263	     12.63334493	     13.63521116	    -12.87608202	      4.32977695	     -4.28064145	      9.64453710	     39.69755962	     -4.54828273	    -12.24686190	    -35.56364867	      3.68433889	      4.43455772	    -12.26465763	      4.67321295	      5.44783231	      3.72478841
      4.41000000	     -5.36597098	     -5.17324858	     -2.47457585	      0.21714164	     -0.01756471	     -0.14047190	     -0.54498886	     12.58814401	     13.58014694	    -12.74931379	      4.55005193	     -4.05534593	      9.78765490	     39.66452904	     -4.55361035	    -12.62606731	    -33.70197693	      3.91585545	      5.56157128	    -12.12697479	      4.54162597	      5.47402264	      3.79621577
      4.41500000	     -5.31492818	     -5.18927109	     -2.57284166	      0.22285355	     -0.01810294	     -0.14062081	     -1.11498497	     12.54271353	     13.49970949	    -12.63995092	      4.78407696	     -3.76682098	      9.98483268	     39.59238163	     -4.56558126	    -12.98942059	    -31.87499799	      4.15294222	      6.69428311	    -11.96532664	      4.38790390	      5.51186823	      3.87684920
      4.42000000	     -5.26550519	     -5.22816840	     -2.66026457	      0.22859697	     -0.01867516	     -0.14078639	     -1.68765575	     12.51271105	     13.39939615	    -12.52532094	      5.00011893	     -3.41795611	     10.22163969	     39.52806852	     -4.59589494	    -13.34452592	    -30.12271360	      4.36861902	      7.87068951	    -11.80657859	      4.24176905	      5.56848235	      3.94349571
      4.42500000	     -5.19541337	     -5.27135129	     -2.76228652	      0.23437021	     -0.01926151	     -0.14094490	     -2.27344372	     12.47900190	     13.28204072	    -12.43239587	      5.23054896	     -3.00929225	     10.51922732	     39.43007119	     -4.62974897	    -13.66742249	    -28.43036205	      4.59843788	      9.03820448	    -11.64960911	      4.07812005	      5.62760470	      4.02166993
      4.43000000	     -5.12194321	     -5.32179557	     -2.86128720	      0.24018655	     -0.01986899	     -0.14112838	     -2.85913963	     12.44382030	     13.15137221	    -12.35145968	      5.45277008	     -2.55229239	     10.85970866	     39.32549236	     -4.65717454	    -13.93422101	    -26.81196172	      4.82627869	     10.18843096	    -11.51287243	      3.91724864	      5.69256334	      4.09871884
      4.43500000	     -5.06569275	     -5.37212849	     -2.95248474	      0.24608320	     -0.02053404	     -0.14131837	     -3.42614192	     12.40530597	     13.03310105	    -12.28468495	      5.67661378	     -2.09226028	     11.21253001	     39.23817666	     -4.67023717	    -14.13436819	    -25.28044571	      5.08124207	     11.30727489	    -11.40496506	      3.79286408	      5.74507305	      4.10424856
      4.44000000	     -4.96000836	     -5.42957618	     -3.07640579	      0.25196139	     -0.02114270	     -0.14150654	     -4.02957433	     12.35802689	     12.90299430	    -12.24698212	      5.90492285	     -1.51488028	     11.64967229	     39.09029674	     -4.69854252	    -14.26702153	    -23.83370456	      5.32912011	     12.36645881	    -11.33289551	      3.60235897	      5.81536659	      4.22092343
